<svg xmlns="http://www.w3.org/2000/svg" width="29" height="14" fill="none" viewBox="-4 -2 35 18"><path fill="#757575" d="M28.332 13.684c-.642 0-.905-.225-.905-.787v-1.689h-.456v-.46h.456v-.735h.594v.736h.625v.459h-.625v1.55c0 .314.118.443.405.443.089 0 .14-.003.22-.011v.465a2 2 0 0 1-.314.03m-2.017-3.457a.365.365 0 0 1-.365-.363.366.366 0 0 1 .73 0 .367.367 0 0 1-.365.363m-.293 3.437V10.75h.58v2.916zm-1.694.049c-.409 0-.728-.188-.897-.508h-.043v.46h-.583V9.604h.583v1.606h.043c.155-.315.497-.513.897-.513.74 0 1.208.582 1.208 1.506v.006c0 .915-.473 1.504-1.208 1.504m-.164-.497c.486 0 .779-.382.779-1.007v-.006c0-.625-.293-1.007-.78-1.007s-.786.384-.786 1.007v.006c0 .623.3 1.007.787 1.007m-3.142.506c-.854 0-1.37-.583-1.37-1.507v-.003c0-.91.526-1.52 1.34-1.52s1.313.588 1.313 1.464v.204h-2.068c.011.559.317.884.798.884.373 0 .596-.186.666-.336l.01-.021.562-.003-.005.024c-.097.384-.5.814-1.247.814m-.027-2.552c-.398 0-.699.272-.75.774h1.483c-.046-.521-.339-.774-.733-.774m-4.949 2.495V9.79h1.4c1.148 0 1.823.709 1.823 1.926v.005c0 1.23-.67 1.944-1.824 1.944zm.601-.518h.731c.811 0 1.278-.518 1.278-1.418v-.005c0-.892-.475-1.416-1.278-1.416h-.73zm-2.726.537c-.642 0-.905-.225-.905-.787v-1.689h-.456v-.46h.456v-.735h.594v.736h.626v.459h-.626v1.55c0 .314.118.443.405.443.089 0 .14-.003.22-.011v.465c-.093.016-.2.03-.314.03m-2.833.037c-.851 0-1.373-.58-1.373-1.523v-.005c0-.924.519-1.502 1.37-1.502.733 0 1.171.414 1.252.98v.014l-.559.003-.003-.008c-.064-.288-.3-.502-.687-.502-.486 0-.779.386-.779 1.015v.005c0 .645.298 1.037.779 1.037.365 0 .59-.167.685-.481l.005-.013h.559l-.006.024c-.105.566-.52.956-1.243.956m-2.984 0c-.854 0-1.37-.583-1.37-1.507v-.003c0-.91.527-1.52 1.34-1.52s1.314.588 1.314 1.464v.204H7.319c.01.559.317.884.797.884.374 0 .597-.186.666-.336l.011-.021.561-.003-.005.024c-.097.384-.5.814-1.246.814m-.027-2.552c-.397 0-.698.272-.75.774H8.81c-.045-.521-.338-.774-.733-.774m-3.106 2.495V10.75h.583v.44h.043c.105-.309.376-.491.766-.491.094 0 .196.013.255.027v.537a1.5 1.5 0 0 0-.315-.035c-.445 0-.749.274-.749.695v1.743zm-.916-3.437a.365.365 0 0 1-.365-.363.366.366 0 0 1 .73 0 .367.367 0 0 1-.365.363m-.292 3.437V10.75h.58v2.916zm-3.763 0V9.79h1.4c1.149 0 1.823.709 1.823 1.926v.005c0 1.23-.669 1.944-1.824 1.944zm.602-.518h.73c.811 0 1.278-.518 1.278-1.418v-.005c0-.892-.475-1.416-1.278-1.416h-.73zm24.159-4.999q-.957 0-1.663-.28-.706-.279-1.113-.784a2.15 2.15 0 0 1-.451-1.197l-.006-.086h1.62l.005.053a.86.86 0 0 0 .245.51q.218.216.579.34.361.122.829.123.45 0 .79-.13.34-.128.529-.354a.8.8 0 0 0 .195-.526v-.005a.72.72 0 0 0-.323-.613q-.318-.23-1.069-.381l-.845-.167q-1.253-.247-1.82-.81-.567-.565-.568-1.445V2.39q0-.72.395-1.257t1.085-.832q.69-.3 1.58-.301.936 0 1.604.295.672.29 1.051.8.378.505.429 1.155l.005.07h-1.58l-.011-.064a.95.95 0 0 0-.245-.489 1.26 1.26 0 0 0-.512-.328 2 2 0 0 0-.74-.123q-.412 0-.724.118-.311.118-.484.333a.76.76 0 0 0-.172.5v.005q0 .376.311.618.318.236 1.024.376l.852.166q.852.167 1.385.451.54.285.796.715T28 5.634v.006q0 .768-.395 1.332-.39.558-1.119.87-.723.306-1.725.306m-7.391 0q-1.163 0-2.009-.494c-.846-.494-.998-.799-1.302-1.407q-.456-.914-.456-2.17v-.011q0-1.257.456-2.17A3.27 3.27 0 0 1 15.356.494Q16.202 0 17.37 0q.952 0 1.708.36.764.36 1.23.994.468.633.546 1.45v.07h-1.63l-.006-.038a1.76 1.76 0 0 0-.985-1.278 2 2 0 0 0-.863-.183q-.63 0-1.09.328-.462.321-.713.929-.245.6-.245 1.434v.01q0 .828.245 1.435.25.607.713.934.461.328 1.096.328.483 0 .862-.167.384-.17.635-.478.255-.31.339-.725l.011-.048h1.636v.064a2.83 2.83 0 0 1-.55 1.424 3.15 3.15 0 0 1-1.214.961q-.75.345-1.725.344M7.387 7.95V.198h5.32v1.337h-3.64v1.87h3.434V4.65H9.067v1.96h3.64v1.34zm-6.547 0V6.74h2.337q.729 0 1.108-.29.384-.29.384-.843v-.01q0-.36-.178-.607a1.03 1.03 0 0 0-.518-.37 2.4 2.4 0 0 0-.835-.13H.84V3.421h2.104q.679 0 1.04-.263.362-.263.362-.741v-.01q0-.473-.334-.737-.328-.268-.93-.268H.84V.199h2.671q.784 0 1.336.236.555.231.851.666.3.43.3 1.026v.01q0 .41-.194.763-.19.356-.518.591c-.328.235-.465.256-.74.296v.096q.534.038.946.29.417.253.651.656.24.402.24.897v.01q0 .677-.34 1.177-.334.494-.957.768-.618.268-1.48.268zm-.84 0V.198h1.68v7.75z"/></svg>