<svg xmlns="http://www.w3.org/2000/svg" width="25" height="18" fill="none" viewBox="-6 0 37 18"><path fill="#71706f" d="M22.037 9.285h-2.226c-.247 0-.449-.2-.449-.45s.202-.468.45-.468H23.2v-1.69h-3.388c-1.183 0-2.146.975-2.146 2.167s.963 2.167 2.145 2.167h2.196c.248 0 .45.198.45.448s-.202.433-.45.433H17.3c-.4.771-.789 1.432-1.578 1.763h6.316c1.163-.017 2.114-1.012 2.114-2.194s-.95-2.16-2.114-2.176"/><path fill="#71706f" d="M13.505 6.677c-1.887 0-3.423 1.562-3.423 3.482V17.4h1.708v-3.746h1.71c1.887 0 3.418-1.582 3.418-3.502s-1.528-3.475-3.414-3.475m0 5.215H11.79v-1.74c0-.971.766-1.762 1.715-1.762s1.721.79 1.721 1.762c0 .973-.772 1.74-1.721 1.74"/><g fill="#c8036f"><path d="M4.675 13.654c-1.615 0-2.973-1.162-3.34-2.682 0 0-.106-.502-.106-.833s.1-.838.1-.838c.37-1.515 1.726-2.644 3.338-2.644 1.897 0 3.453 1.558 3.453 3.474v.843H3.082c.297.587.899.918 1.593.918h4.529l.006-4.97c0-.74-.6-1.346-1.333-1.346H1.458c-.733 0-1.333.588-1.333 1.328v6.487c0 .74.6 1.365 1.333 1.365h6.419c.658 0 1.207-.477 1.313-1.102z"/><path d="M4.667 8.306c-.69 0-1.292.428-1.59.979h3.181c-.298-.551-.9-.979-1.59-.979m2.906-4.84C7.574 1.883 6.273.6 4.667.6 3.087.6 1.803 1.841 1.76 3.388v.881c0 .103.083.205.188.205h1.07c.104 0 .196-.102.196-.205v-.803c0-.79.651-1.433 1.453-1.433s1.454.643 1.454 1.433v.803c0 .103.085.205.19.205h1.07c.104 0 .193-.102.193-.205z"/></g></svg>