<svg xmlns="http://www.w3.org/2000/svg" width="30" height="10" fill="none" viewBox="-2 -2 34 14"><g fill="#d13239"><path d="m6.83 5.742 2.38-.004-.086.542-1.992 1.896h1.67l-.095.581H6.249l.1-.6 1.907-1.829H6.734zm-2.597-.926a.6.6 0 0 0-.207-.13 2 2 0 0 0-.278-.076 3 3 0 0 0-.317-.034c-.077-.005-.125-.005-.125-.005H1.491L.8 8.757h.648l.254-1.55 1.258.005s.49.019.836-.164.441-.6.441-.6.039-.153.072-.345a14 14 0 0 0 .101-.687s.01-.043.01-.11a.8.8 0 0 0-.087-.365c-.033-.043-.062-.087-.1-.125m-.5.74c0 .009-.057.345-.134.743-.029.154-.144.236-.279.264-.22.048-.46.039-.46.039l-1.052-.005.23-1.392.951.005h.154c.1 0 .235.004.35.019.096.014.173.033.197.062a.24.24 0 0 1 .048.14c.005.062-.005.12-.005.124m8.699-.984h.624l-.696 4.186h-.624zm3.328 1.171.6-.004.21 2.126.918-2.126h.739l.216 2.136.917-2.136h.624l-1.32 3.02h-.735l-.211-2.113-.931 2.112h-.72zm-4.475.025c-.173-.058-.475-.068-.735-.068-.25.005-.36.015-.456.034 0 0-.441.062-.691.374s-.326.99-.326.99-.15.748-.106.998.12.48.403.59.523.106.523.106.504.038.884-.048.58-.355.58-.355.092-.115.154-.255c.063-.139.082-.23.087-.245l.038-.163h-.648s-.034.428-.384.466-.533.024-.605.02c-.067-.006-.442.014-.413-.299v-.019c.015-.355.058-.446.058-.446l2.03-.005.087-.504c.11-.571.038-1.003-.48-1.171m-.14 1.099H9.754l.053-.22s.048-.174.144-.246.221-.086.336-.096.423-.033.677.02c.082.014.163.062.183.134.052.158 0 .408 0 .408"/><path d="M9.605 7.898v.014c-.005.024 0-.014 0-.014m5.506-2.131c-.173-.058-.475-.068-.734-.068-.25.005-.36.015-.456.034 0 0-.442.062-.692.374s-.326.99-.326.99-.149.748-.106.998.12.48.403.59.524.106.524.106.504.038.883-.048c.38-.091.581-.355.581-.355s.091-.115.154-.255c.062-.139.081-.23.086-.245l.038-.163h-.648s-.033.428-.384.466c-.35.038-.533.024-.605.024-.067-.005-.441.014-.413-.298v-.019c.015-.355.058-.446.058-.446l2.03-.005.087-.504c.11-.572.043-1.008-.48-1.176m-.14 1.099H13.58l.052-.22s.048-.174.144-.246c.097-.072.221-.086.337-.096s.422-.033.676.02c.082.014.164.062.183.134.053.158 0 .408 0 .408M20.7 5.743l.398 2.208 1.128-2.208.634.004-1.628 3.154s-.293.572-.475.716c-.183.144-.293.211-.442.225s-.211.024-.35 0l-.154-.028.096-.562s.255.048.403-.014c.15-.058.27-.317.27-.317l.076-.13-.59-3.058z"/></g><path fill="#b3b2b1" d="M23.095 6.04h.653l.038-.254s.072-.461.226-.548a.8.8 0 0 1 .225-.072c.173-.028.39-.033.567-.028.274.01.374.014.653.043.278.033.206.297.206.297l-.053.399s-.024.178-.086.288c-.058.1-.211.168-.302.197-.216.072-.956.259-.956.259l-.58.168s-.356.106-.558.322a1.3 1.3 0 0 0-.307.605c-.029.13-.182 1.037-.182 1.037h3.135l.105-.625-2.477.005.043-.254s.03-.264.135-.35c.033-.03.048-.063.25-.135.12-.043.523-.149.523-.149l.936-.254s.509-.13.71-.413c.202-.279.279-.812.279-.812s.053-.518.014-.681a.75.75 0 0 0-.379-.442c-.187-.082-.38-.134-.946-.125-.562.01-.845.034-1.128.14-.288.105-.451.297-.557.566-.12.264-.187.816-.187.816m5.9 1.167.442-2.631h-.778l-2.424 2.602-.11.658h2.116l-.153.926h.653l.153-.926h.6l.106-.63zm-.643 0h-1.368l1.665-1.777zM5.606 4.917h1.997s.446-.36.763-.596c.317-.23.898-.6.898-.6l-1.128-.528s-.956.59-1.359.87c-.394.258-1.171.854-1.171.854m4.287-1.565-.927-.624s.835-.476 1.954-.922a28 28 0 0 1 1.71-.63l.186.884s-1.07.36-1.685.648c-.634.274-1.238.644-1.238.644m3.61-1.484L13.34.966s1.142-.303 2.189-.5C16.575.27 17.963.178 17.963.178l-.461 1.397s-1.22-.168-2.367-.01a13 13 0 0 0-1.632.303m4.729-.173.773-1.55s1.69-.034 3.149.192c1.46.225 2.794.571 2.765.585l-3.701 1.935s-.864-.547-1.94-.883c-.605-.178-1.046-.279-1.046-.279m3.653 1.585.811.619h6.683s-.014-.216-.192-.523c-.11-.192-.312-.394-.523-.605a5.5 5.5 0 0 0-.615-.466c-.59-.384-.921-.533-1.531-.806z"/><path fill="#d13239" d="M6.038 5.738c-.25 0-.49.1-.692.21l.034-.21h-.663l-.532 3.005h.667l.293-1.666c.062-.336.312-.754.806-.754h.346l.106-.585z"/></svg>