<svg xmlns="http://www.w3.org/2000/svg" width="39" height="24" fill="none" viewBox="0 0 39 24"><rect width="38" height="24" x=".8" fill="#873EFF" rx="2"/><rect width="37" height="23" x="1.3" y=".5" stroke="#000" stroke-opacity=".07" rx="1.5"/><path fill="#fff" d="M29.33 16.055a.6.6 0 0 0 .179.057q.112.02.226.02a.7.7 0 0 0 .378-.095.6.6 0 0 0 .245-.302l.322-.746.075.632-2.04-5.033h1.049l1.34 3.437 1.341-3.437h1.048l-2.21 5.41q0 .01-.009.01v.02q-.15.348-.377.566a1.3 1.3 0 0 1-.5.311q-.275.095-.624.095a2.7 2.7 0 0 1-.595-.066zm-3.505-.792q-.585 0-1.049-.284a2 2 0 0 1-.727-.83q-.255-.54-.255-1.275 0-.727.255-1.266.265-.547.727-.84a1.9 1.9 0 0 1 1.049-.293q.471 0 .887.236.416.226.68.642l-.028.727q-.143-.293-.51-.51a1.45 1.45 0 0 0-.746-.217q-.387 0-.69.199a1.24 1.24 0 0 0-.453.538q-.15.34-.15.784 0 .68.348 1.104.35.416.945.416.386 0 .746-.208.367-.207.51-.51l.018.727q-.264.397-.67.633a1.8 1.8 0 0 1-.887.227m1.473-.114v-4.56h.972v4.56zm-8.55.001v-6.3h2.757q.642 0 1.105.264.462.265.708.718t.246.992-.246.991a1.8 1.8 0 0 1-.718.708q-.462.265-1.095.265h-1.813v-.954h1.662q.321 0 .567-.123a.95.95 0 0 0 .377-.359q.142-.236.142-.528a1 1 0 0 0-.142-.53.87.87 0 0 0-.377-.358 1.25 1.25 0 0 0-.567-.123h-1.51v5.335zm-9.832.108c.733 0 1.322-.362 1.766-1.195l.987-1.848v1.567c0 .924.598 1.476 1.522 1.476.724 0 1.259-.317 1.775-1.195l2.274-3.84c.498-.843.145-1.477-.951-1.477-.59 0-.97.19-1.314.833l-1.567 2.944V9.905c0-.779-.371-1.16-1.06-1.16-.543 0-.978.236-1.313.889L9.56 12.523v-2.59c0-.834-.345-1.187-1.178-1.187H6.678c-.643 0-.969.299-.969.851 0 .553.344.87.97.87h.697v3.306c0 .933.625 1.485 1.54 1.485"/></svg>