<svg xmlns="http://www.w3.org/2000/svg" width="38" height="24" fill="none" viewBox="0 0 38 24"><g clip-path="url(#a)"><path fill="#fff" d="M32 9.234a3 3 0 0 0-.226-1.132 2.7 2.7 0 0 0-.647-.932 2.6 2.6 0 0 0-1.03-.626q-.557-.177-1.528-.175h-8.64v5.743h8.647q.961.002 1.526-.175a2.66 2.66 0 0 0 1.031-.626c.283-.269.496-.581.647-.932q.22-.572.22-1.145m0 6.513q0-.58-.226-1.133a2.7 2.7 0 0 0-.647-.932 2.6 2.6 0 0 0-1.03-.625q-.557-.181-1.528-.182h-8.64v5.756h8.647q.961-.002 1.526-.181a2.66 2.66 0 0 0 1.031-.626c.283-.27.496-.582.647-.939.145-.375.22-.75.22-1.138m-12.85-3.641C18.976 8.396 16.299 6 12.083 6 7.727 6 5 8.565 5 12.5c0 4.06 2.84 6.5 7.082 6.5 4.247 0 6.905-2.409 7.069-6.125H12.3v-.763h6.85z"/></g><rect width="36.795" height="22.795" x=".603" y=".603" stroke="#000" stroke-opacity=".07" stroke-width="1.205" rx="1.808"/><defs><clipPath id="a"><rect width="38" height="24" fill="#fff" rx="2.41"/></clipPath></defs></svg>