<svg xmlns="http://www.w3.org/2000/svg" width="64" height="40" fill="none" viewBox="0 0 64 40"><path fill="#fff" d="M0 0h64v40H0z"/><g clip-path="url(#a)"><path fill="#FF5A00" d="M37.376 10.284H26.56v19.432h10.816z"/><path fill="#EB001B" d="M27.28 20c0-3.948 1.856-7.452 4.704-9.716A12.3 12.3 0 0 0 24.36 7.64C17.528 7.64 12 13.168 12 20s5.528 12.36 12.36 12.36c2.884 0 5.528-.996 7.624-2.644A12.34 12.34 0 0 1 27.28 20"/><path fill="#F79E1B" d="M51.968 20c0 6.832-5.528 12.36-12.36 12.36-2.884 0-5.528-.996-7.624-2.644A12.3 12.3 0 0 0 36.688 20c0-3.948-1.856-7.452-4.704-9.716a12.27 12.27 0 0 1 7.62-2.644c6.836 0 12.364 5.564 12.364 12.36"/></g><defs><clipPath id="a"><path fill="#fff" d="M12 7.64h40v24.72H12z"/></clipPath></defs></svg>