<svg xmlns="http://www.w3.org/2000/svg" width="52" height="35" fill="none" viewBox="0 0 52 35"><path fill="#01798A" fill-rule="evenodd" d="m44.055 5.257-9.72-.002h-.002l-.022.001c-1.336.04-2.999 1.093-3.301 2.391L26.413 27.64c-.303 1.31.521 2.377 1.847 2.396h10.21c1.306-.063 2.574-1.104 2.872-2.387l4.596-19.993c.308-1.324-.536-2.399-1.884-2.399" clip-rule="evenodd"/><path fill="#024381" fill-rule="evenodd" d="M26.413 27.64 31.01 7.647c.303-1.298 1.965-2.35 3.3-2.39l-3.864-.003-6.962-.002c-1.339.027-3.024 1.087-3.326 2.395L15.56 27.64c-.304 1.31.521 2.377 1.846 2.396H28.26c-1.326-.02-2.15-1.086-1.847-2.396" clip-rule="evenodd"/><path fill="#DD0228" fill-rule="evenodd" d="m15.56 27.64 4.598-19.993c.303-1.308 1.987-2.368 3.326-2.395l-8.92-.002c-1.345 0-3.072 1.072-3.38 2.397L6.588 27.64a2.5 2.5 0 0 0-.053.359v.37c.09.956.832 1.651 1.899 1.667h8.973c-1.325-.02-2.15-1.086-1.846-2.396" clip-rule="evenodd"/><path fill="#fff" fill-rule="evenodd" d="M23.672 19.82h.168q.234 0 .309-.152l.438-.645h1.175l-.245.424h1.408l-.178.65H25.07q-.288.429-.716.404h-.873zm-.193.933h3.085l-.196.706h-1.241l-.19.682h1.208l-.197.706h-1.207l-.28 1.008q-.105.252.272.227h.984l-.182.656h-1.89q-.536 0-.369-.605l.36-1.286h-.773l.196-.706h.772l.19-.682h-.738zm4.925-1.735-.049.413s.582-.429 1.11-.429h1.954l-.747 2.658q-.093.455-.797.455h-2.214l-.518 1.867q-.044.15.124.151h.435l-.16.58h-1.107q-.637 0-.532-.379l1.465-5.316zm1.654.751h-1.744l-.208.718s.29-.206.775-.214c.484-.007 1.036 0 1.036 0zm-.632 1.664q.195.026.21-.151l.107-.378h-1.747l-.146.53zm-1.178.86h1.007l-.019.427h.268q.202 0 .202-.127l.08-.276h.836l-.111.403q-.142.505-.752.53h-.537l-.002.732q-.014.176.32.177h.504l-.163.58h-1.208q-.508.023-.502-.48zm-12.195-6.817q-.207.985-.944 1.522-.73.529-1.882.529-1.084 0-1.59-.543-.352-.386-.352-.98 0-.245.06-.528l.818-3.879H13.4l-.807 3.835a1.2 1.2 0 0 0-.034.294.74.74 0 0 0 .15.483q.218.28.714.28.571 0 .937-.276.365-.274.473-.78l.81-3.836h1.23zm5.191-1.526h.968l-.759 3.462h-.966zm.304-1.261h.977l-.183.84h-.976zm1.521 4.46q-.38-.356-.383-.966 0-.106.014-.236.014-.133.038-.252.172-.845.736-1.339a2 2 0 0 1 1.36-.496q.654 0 1.033.359.38.359.38.977 0 .106-.016.24a4 4 0 0 1-.04.259c-.112.553-.356.995-.733 1.318q-.565.488-1.356.488-.655 0-1.033-.352m1.845-.686q.255-.273.367-.825a2 2 0 0 0 .036-.34q0-.32-.166-.496-.166-.178-.47-.177a.85.85 0 0 0-.658.278q-.258.278-.372.84-.016.085-.027.17a1 1 0 0 0-.007.16q0 .317.166.491.165.174.472.174.404 0 .659-.275m7.612 3.387.234-.808h1.18l-.051.296s.603-.296 1.037-.296h1.46l-.233.808h-.23l-1.1 3.808h.23l-.219.757h-.23l-.095.328h-1.143l.096-.328h-2.255l.22-.757h.226l1.101-3.808zm1.273 0-.3 1.03s.514-.193.957-.248c.098-.36.225-.782.225-.782zm-.44 1.514-.3 1.08s.569-.276.96-.3a25 25 0 0 1 .226-.78zm.222 2.294.226-.783h-.881l-.227.783zm2.854-4.666h1.11l.047.403q-.012.152.186.151h.196l-.198.682h-.816q-.465.025-.486-.354zm-.325 1.463h3.594l-.211.732h-1.144l-.196.68h1.143l-.212.731H37.81l-.288.428h.624l.143.858q.028.127.226.127h.194l-.204.706h-.685q-.531.026-.553-.352l-.165-.784-.567.834a.62.62 0 0 1-.618.328H34.87l.204-.707h.326c.135 0 .246-.058.346-.177l.888-1.26H35.49l.212-.732h1.24l.198-.68h-1.242zM17.192 13.95h.872l-.1.5.126-.143a1.37 1.37 0 0 1 1.032-.446q.551 0 .799.316.247.316.13.877l-.48 2.36h-.897l.434-2.139q.067-.331-.037-.491-.103-.16-.386-.159-.346 0-.583.211a1.04 1.04 0 0 0-.316.588l-.4 1.99h-.899zm10.01 0h.874l-.1.5.125-.143a1.37 1.37 0 0 1 1.032-.446q.55 0 .798.316c.163.211.21.503.13.877l-.479 2.36h-.898l.434-2.139q.068-.331-.036-.491t-.386-.159q-.344 0-.584.211a1.03 1.03 0 0 0-.314.588l-.402 1.99h-.898zm4.319-2.148h2.537q.732 0 1.124.322.387.324.387.93v.012q0 .115-.012.257a4 4 0 0 1-.05.284 2.186 2.186 0 0 1-2.199 1.778h-1.36l-.42 2.028H30.35zm.634 2.607h1.128q.443-.001.698-.2c.169-.135.28-.34.342-.618l.024-.14q.008-.06.009-.12 0-.297-.216-.433-.215-.136-.683-.135H32.5zm8.685 3.674c-.372.779-.727 1.232-.935 1.443-.209.209-.622.695-1.617.658l.086-.594c.837-.254 1.29-1.397 1.548-1.903l-.307-3.728.647-.009h.544l.058 2.339 1.019-2.339h1.031zm-2.884-3.851-.41.277c-.428-.33-.819-.533-1.573-.19-1.028.47-1.886 4.062.943 2.879l.161.188 1.114.027.73-3.264zm-.633 1.785c-.178.518-.578.861-.89.764s-.425-.596-.244-1.115c.179-.52.58-.862.891-.764.313.095.426.595.243 1.115" clip-rule="evenodd"/><path fill="#E02F41" fill-rule="evenodd" d="m34.333 5.261-3.887-.008 3.865.017c.007 0 .014-.009.022-.009" clip-rule="evenodd"/><path fill="#2E4F7D" fill-rule="evenodd" d="m30.447 5.274-6.91-.024a.14.14 0 0 0-.053.015z" clip-rule="evenodd"/></svg>